<svg width="1200" height="630" viewBox="0 0 1200 630" fill="none" xmlns="http://www.w3.org/2000/svg">
  <!-- Background -->
  <rect width="1200" height="630" fill="#0F0F10"/>
  
  <!-- Main content area -->
  <rect x="100" y="100" width="1000" height="430" rx="20" fill="#1F2937" stroke="#3B82F6" stroke-width="2"/>
  
  <!-- Title -->
  <text x="600" y="200" text-anchor="middle" font-family="ui-sans-serif, system-ui, -apple-system, Segoe UI, Roboto, Helvetica Neue, Arial" font-size="64" font-weight="700" fill="#E5E5E5">
    Shivam
  </text>
  
  <!-- Subtitle -->
  <text x="600" y="280" text-anchor="middle" font-family="ui-sans-serif, system-ui, -apple-system, Segoe UI, Roboto, Helvetica Neue, Arial" font-size="32" font-weight="400" fill="#60A5FA">
    Engineer • Writer • Photographer
  </text>
  
  <!-- Description -->
  <text x="600" y="340" text-anchor="middle" font-family="ui-sans-serif, system-ui, -apple-system, Segoe UI, Roboto, Helvetica Neue, Arial" font-size="24" font-weight="400" fill="#9CA3AF">
    Stories from airports and algorithms, quiet lessons from friendships
  </text>
  
  <!-- Icons representing interests -->
  <!-- Camera icon -->
  <g transform="translate(300, 400)">
    <rect x="0" y="0" width="60" height="60" rx="8" fill="#3B82F6" opacity="0.1"/>
    <path d="M15 20h30c2.2 0 4 1.8 4 4v20c0 2.2-1.8 4-4 4H15c-2.2 0-4-1.8-4-4V24c0-2.2 1.8-4 4-4zm15 20c-3.3 0-6-2.7-6-6s2.7-6 6-6 6 2.7 6 6-2.7 6-6 6z" fill="#3B82F6"/>
  </g>
  
  <!-- Code icon -->
  <g transform="translate(450, 400)">
    <rect x="0" y="0" width="60" height="60" rx="8" fill="#3B82F6" opacity="0.1"/>
    <path d="M20 15l-8 15 8 15M40 15l8 15-8 15M30 15l-8 15 8 15" stroke="#3B82F6" stroke-width="3" stroke-linecap="round" fill="none"/>
  </g>
  
  <!-- Music icon -->
  <g transform="translate(600, 400)">
    <rect x="0" y="0" width="60" height="60" rx="8" fill="#3B82F6" opacity="0.1"/>
    <path d="M15 20v20c0 2.2-1.8 4-4 4s-4-1.8-4-4 1.8-4 4-4c1.1 0 2-.9 2-2V20l12-2v20c0 2.2-1.8 4-4 4s-4-1.8-4-4 1.8-4 4-4c1.1 0 2-.9 2-2V18l-12 2z" fill="#3B82F6"/>
  </g>
  
  <!-- Game controller icon -->
  <g transform="translate(750, 400)">
    <rect x="0" y="0" width="60" height="60" rx="8" fill="#3B82F6" opacity="0.1"/>
    <rect x="15" y="25" width="30" height="10" rx="2" fill="#3B82F6"/>
    <circle cx="25" cy="30" r="3" fill="#E5E5E5"/>
    <circle cx="35" cy="30" r="3" fill="#E5E5E5"/>
  </g>
  
  <!-- URL -->
  <text x="600" y="520" text-anchor="middle" font-family="ui-sans-serif, system-ui, -apple-system, Segoe UI, Roboto, Helvetica Neue, Arial" font-size="20" font-weight="400" fill="#60A5FA">
    shivam10.com
  </text>
</svg>
